<?xml version="1.0" encoding="UTF-8" standalone="no"?>
<svg
   width="1000mm"
   height="1000mm"
   viewBox="0 0 1000 1000"
   version="1.1"
   preserveAspectRatio="xMidYMid"
   id="svg1"
   sodipodi:docname="soap dispenser version 3.svg"
   inkscape:version="1.4.2 (f4327f4, 2025-05-13)"
   xmlns:inkscape="http://www.inkscape.org/namespaces/inkscape"
   xmlns:sodipodi="http://sodipodi.sourceforge.net/DTD/sodipodi-0.dtd"
   xmlns="http://www.w3.org/2000/svg"
   xmlns:svg="http://www.w3.org/2000/svg">
  <defs
     id="defs1" />
  <sodipodi:namedview
     id="namedview1"
     pagecolor="#ffffff"
     bordercolor="#000000"
     borderopacity="0.25"
     inkscape:showpageshadow="2"
     inkscape:pageopacity="0.0"
     inkscape:pagecheckerboard="0"
     inkscape:deskcolor="#d1d1d1"
     inkscape:document-units="mm"
     inkscape:zoom="0.2033031"
     inkscape:cx="2547.9199"
     inkscape:cy="1497.7637"
     inkscape:window-width="1920"
     inkscape:window-height="991"
     inkscape:window-x="-9"
     inkscape:window-y="-9"
     inkscape:window-maximized="1"
     inkscape:current-layer="svg1" />
  <g
     id="svgGroup"
     stroke-linecap="round"
     fill-rule="evenodd"
     font-size="12px"
     stroke="#000"
     stroke-width="0.25mm"
     fill="none"
     style="fill:none;stroke:#000000;stroke-width:0.25mm"
     transform="translate(4.6012252,6.4417153)">
    <path
       id="front_outsideCutPath"
       style="stroke:#ff0000;stroke-width:0.1"
       d="m 0,253.00006 v 26.56272 H 3.9997559 V 307.6882 H 0 v 28.12489 h 3.9997559 v 28.1249 H 0 v 28.1249 h 3.9997559 v 28.1249 H 0 v 28.12541 h 3.9997559 v 28.1249 H 0 v 26.56169 h 29.68811 v -3.99976 h 28.124899 v 3.99976 h 28.124898 v -3.99976 h 28.124903 v 3.99976 h 28.12541 v -3.99976 h 28.1249 v 3.99976 H 200.0002 V 476.4381 h -4.00028 v -28.1249 h 4.00028 v -28.12541 h -4.00028 v -28.1249 h 4.00028 v -28.1249 h -4.00028 v -28.1249 h 4.00028 V 307.6882 h -4.00028 v -28.12542 h 4.00028 v -26.56272 h -30.36456 c 0.0648,0.0428 0.10387,0.0987 0.10387,0.1602 v 99.5562 c 0,0.13501 -0.18861,0.24339 -0.42271,0.24339 H 30.383158 c -0.234104,0 -0.422713,-0.10838 -0.422713,-0.24339 v -99.5562 c 0,-0.0615 0.03911,-0.1174 0.10387,-0.1602 z m 82.735002,140.5108 h 5.16e-4 5.17e-4 5.17e-4 c 6.23e-4,4e-5 0.0015,0 0.0021,0 h 34.753951 c 0.0183,0 0.0331,0.0352 0.0331,0.0791 v 19.66185 c 0,0.0438 -0.0148,0.0791 -0.0331,0.0791 H 82.738619 c -0.01827,0 -0.03307,-0.0352 -0.03307,-0.0791 v -19.66185 c 0,-0.0411 0.01279,-0.075 0.02946,-0.0791 z" />
    <path
       id="left_outsideCutPath"
       style="stroke:#ff0000;stroke-width:0.1"
       d="m 206.99977,253.00006 v 26.56272 h -3.99976 v 28.12542 h 3.99976 v 28.12489 h -3.99976 v 28.1249 h 3.99976 v 28.1249 h -3.99976 v 28.1249 h 3.99976 v 28.12541 h -3.99976 v 28.1249 h 3.99976 v 26.56169 h 38.81313 v -3.99976 h 28.1249 v 3.99976 h 28.12542 v -3.99976 h 28.12489 v 3.99976 h 28.1249 10.68721 V 476.4381 h 3.99975 v -28.1249 h -3.99975 v -28.12541 h 3.99975 v -28.1249 h -3.99975 v -28.1249 h 3.99975 v -28.1249 h -3.99975 V 307.6882 h 3.99975 v -28.12542 h -3.99975 v -26.56272 z m 121.05204,12.92014 a 65,65 0 0 1 10.45053,0.84543 v 10.08827 a 55,55 0 0 0 -10.45053,-1.002 55,55 0 0 0 -54.99974,54.99974 55,55 0 0 0 54.99974,55.00026 55,55 0 0 0 10.45053,-1.00201 v 10.22522 a 65,65 0 0 1 -10.45053,0.84543 65,65 0 0 1 -64.99965,-65.00017 65,65 0 0 1 64.99965,-65.00017 z" />
    <path
       d="M 0,0 V 26.563 H 4 V 54.688 H 0 v 28.125 h 4 v 28.125 H 0 v 28.125 h 4 v 28.125 H 0 v 28.125 h 4 v 28.125 H 0 V 250 h 29.688 v -4 h 28.125 v 4 h 28.125 v -4 h 28.125 v 4 h 28.125 v -4 h 28.125 v 4 H 200 v -26.562 h -4 v -28.125 h 4 v -28.125 h -4 v -28.125 h 4 v -28.125 h -4 V 82.813 h 4 V 54.688 h -4 V 26.563 h 4 V 0 Z"
       id="back_outsideCutPath"
       stroke="#FF0000"
       stroke-width="0.1"
       style="stroke:#ff0000;stroke-width:0.1"
       vector-effect="non-scaling-stroke" />
    <path
       id="right_outsideCutPath"
       style="stroke:#ff0000;stroke-width:0.1"
       d="m 206.99977,0 v 26.563236 h -3.99976 v 28.124899 h 3.99976 v 28.124898 h -3.99976 v 28.124897 h 3.99976 v 28.1249 h -3.99976 v 28.12541 h 3.99976 v 28.1249 h -3.99976 v 28.1249 h 3.99976 v 26.5622 h 38.81313 v -4.00027 h 28.1249 v 4.00027 h 28.12542 v -4.00027 h 28.12489 v 4.00027 h 28.1249 10.68721 v -26.5622 h 3.99975 v -28.1249 h -3.99975 v -28.1249 h 3.99975 v -28.12541 h -3.99975 v -28.1249 h 3.99975 V 82.813033 h -3.99975 V 54.688135 h 3.99975 V 26.563236 h -3.99975 V 0 Z m 40.9422,12.938228 a 65,65 0 0 1 64.99965,65.000167 65,65 0 0 1 -64.99965,65.000165 65,65 0 0 1 -10.45052,-0.84542 v -10.22522 a 55,55 0 0 0 10.45052,1.00201 55,55 0 0 0 54.99975,-55.000264 55,55 0 0 0 -54.99975,-54.999744 55,55 0 0 0 -10.45052,1.002006 V 13.783655 a 65,65 0 0 1 10.45052,-0.845427 z" />
    <path
       d="m 711.60117,6.3559448 h -38.813 v -4 h -28.125 v 4 h -28.125 v -4 h -28.125 v 4 h -28.125 -10.687 V 32.043945 h -4 v 28.125 h 4 v 28.125 h -4 v 28.124995 h 4 v 28.125 h -4 v 28.125 h 4 v 25.687 h 38.812 v 4 h 28.125 v -4 h 28.125 v 4 h 28.125 v -4 h 28.125 10.688 v -25.687 h 4 v -28.125 h -4 v -28.125 h 4 V 88.293945 h -4 v -28.125 h 4 v -28.125 h -4 z"
       id="bottom_outsideCutPath"
       stroke="#FF0000"
       stroke-width="0.1"
       style="stroke:#ff0000;stroke-width:0.1"
       vector-effect="non-scaling-stroke" />
    <rect
       style="fill:#ff0000;stroke:#ff0000;stroke-width:0.0435905mm"
       id="rect4"
       width="29.835249"
       height="169.83525"
       x="459.08286"
       y="-713.41357"
       rx="0.084353872"
       ry="0.20750988"
       transform="rotate(90)" />
    <rect
       style="fill:#ff0000;stroke:#ff0000;stroke-width:0.0435905mm"
       id="rect4-4"
       width="29.835249"
       height="169.83525"
       x="425.0874"
       y="-713.62415"
       rx="0.084353872"
       ry="0.20750988"
       transform="rotate(90)" />
    <rect
       style="fill:#ff0000;stroke:#ff0000;stroke-width:0.0285128mm"
       id="rect6"
       width="139.89224"
       height="34.892235"
       x="551.0614"
       y="384.70352"
       rx="0.32214782"
       ry="0.059401151" />
  </g>
  <path
     id="left_outsideCutPath-8"
     style="fill:none;stroke:#ff0000;stroke-width:0.103354"
     d="m 381.90381,263.89103 v 245.89661 h 11.09751 v -44.39005 c 0,-0.0458 0.0303,-0.0827 0.0682,-0.0827 h 139.71292 c 0.0379,0 0.0682,0.0369 0.0682,0.0827 v 44.39005 h 10.94972 V 263.89103 Z m 120.84637,13.01677 a 65,65 0 0 1 10.45052,0.84543 v 10.08827 a 55,55 0 0 0 -10.45052,-1.002 55,55 0 0 0 -54.99975,54.99974 55,55 0 0 0 54.99975,55.00026 55,55 0 0 0 10.45052,-1.00201 v 10.22522 a 65,65 0 0 1 -10.45052,0.84543 65,65 0 0 1 -64.99965,-65.00017 65,65 0 0 1 64.99965,-65.00017 z" />
  <path
     id="right_outsideCutPath-4"
     style="fill:none;stroke:#ff0000;stroke-width:0.103354"
     d="M 383.06514,8.6031259 V 254.49976 h 10.6748 v -44.61278 c 0,-0.0458 0.0308,-0.0827 0.0687,-0.0827 h 139.7124 c 0.0379,0 0.0687,0.0369 0.0687,0.0827 v 44.61278 h 11.37191 V 8.6031259 Z M 424.043,21.470566 a 65,65 0 0 1 64.99965,65.00016 65,65 0 0 1 -64.99965,65.000184 65,65 0 0 1 -10.45053,-0.84543 v -10.22521 a 55,55 0 0 0 10.45053,1.002 55,55 0 0 0 54.99974,-55.000274 55,55 0 0 0 -54.99974,-54.99974 55,55 0 0 0 -10.45053,1.002 v -10.08827 a 65,65 0 0 1 10.45053,-0.84542 z" />
  <path
     id="bottom_outsideCutPath-5"
     style="fill:none;stroke:#ff0000;stroke-width:0.0999335"
     d="M 716.0481,211.88316 H 554.14791 v 52.30172 h 19.55643 c 0.0737,0 0.13281,0.17131 0.13281,0.38447 v 34.07441 c 0,0.21316 -0.0591,0.38499 -0.13281,0.38499 h -19.55643 v 52.75492 H 716.0481 Z" />
  <rect
     style="fill:#ff0000;stroke:#ff0000;stroke-width:0.159466"
     id="rect3"
     width="9.8405342"
     height="149.84053"
     x="376.6925"
     y="-704.51721"
     rx="0.15113522"
     ry="0.12298729"
     transform="rotate(90)" />
  <rect
     style="fill:#ff0000;stroke:#ff0000;stroke-width:0.159466"
     id="rect3-5"
     width="9.8405342"
     height="149.84053"
     x="360.21561"
     y="-703.89825"
     rx="0.15113522"
     ry="0.12298729"
     transform="rotate(90)" />
  <path
     id="path15"
     style="fill:#ff0000;stroke:#ff0000;stroke-width:0.234712"
     d="M 855.18294 231.36211 A 60 60 0 0 0 849.7378 231.60964 L 849.7378 241.56303 A 50 50 0 0 1 854.91061 241.29483 A 50 50 0 0 1 904.91066 291.29488 A 50 50 0 0 1 854.91061 341.29493 A 50 50 0 0 1 849.7378 341.02673 L 849.7378 351.115 A 60 60 0 0 0 855.18294 351.36253 A 60 60 0 0 0 915.1829 291.36206 A 60 60 0 0 0 855.18294 231.36211 z " />
  <rect
     style="fill:#ff0000;stroke:#ff0000;stroke-width:0.264583"
     id="rect16"
     width="30"
     height="10"
     x="933.40607"
     y="317.452"
     rx="0.084353872"
     ry="0.208" />
  <rect
     style="fill:#ff0000;stroke:#ff0000;stroke-width:0.264583"
     id="rect16-8"
     width="30"
     height="10"
     x="948.55383"
     y="238.8589"
     rx="0.084353872"
     ry="0.208" />
  <rect
     style="fill:#ff0000;stroke:#ff0000;stroke-width:0.264583"
     id="rect16-84"
     width="30"
     height="10"
     x="267.21854"
     y="-958.26831"
     rx="0.084353872"
     ry="0.208"
     transform="rotate(90)" />
</svg>
